<svg id="Layer_1" data-name="Layer 1" xmlns="http://www.w3.org/2000/svg" viewBox="0 0 583.97 34.97"><defs><style>.cls-1{fill:none;}.cls-1,.cls-2{stroke:#5fbef2;stroke-miterlimit:10;stroke-width:0.97px;}.cls-2{fill:#48beff;}.cls-3{fill:#fff;}</style></defs><title>Step2</title><path class="cls-1" d="M120.64.67H9.95C4.84.67.67,4.24.67,8.61v18.1c0,4.37,4.18,7.95,9.28,7.95h93.87Z" transform="translate(-0.18 -0.18)"/><path class="cls-1" d="M463.7,34.67H574.39c5.1,0,9.28-3.58,9.28-7.95V8.61c0-4.37-4.18-7.95-9.28-7.95H480.52Z" transform="translate(-0.18 -0.18)"/><polygon class="cls-2" points="103.56 34.49 223.53 34.49 240.35 0.49 120.38 0.49 103.56 34.49"/><polygon class="cls-1" points="223.6 34.49 343.57 34.49 360.39 0.49 240.43 0.49 223.6 34.49"/><polygon class="cls-1" points="343.6 34.49 463.57 34.49 480.39 0.49 360.42 0.49 343.6 34.49"/><path class="cls-3" d="M34.84,15.66a.37.37,0,0,1-.13.16.32.32,0,0,1-.17,0,.44.44,0,0,1-.23-.08L34,15.61a2.41,2.41,0,0,0-.4-.17,1.68,1.68,0,0,0-.54-.08,1.58,1.58,0,0,0-.49.07,1,1,0,0,0-.35.19.75.75,0,0,0-.21.29,1,1,0,0,0-.07.37.64.64,0,0,0,.14.43,1.19,1.19,0,0,0,.38.29,3.51,3.51,0,0,0,.54.21l.61.2a5.83,5.83,0,0,1,.61.25,2.11,2.11,0,0,1,.54.36,1.62,1.62,0,0,1,.38.53,1.84,1.84,0,0,1,.14.76,2.49,2.49,0,0,1-.17.92,2.12,2.12,0,0,1-.49.75,2.31,2.31,0,0,1-.79.5,2.9,2.9,0,0,1-1.06.18,3.44,3.44,0,0,1-.68-.07,3.61,3.61,0,0,1-.64-.19,3.32,3.32,0,0,1-.57-.3,2.79,2.79,0,0,1-.48-.39l.39-.65a.5.5,0,0,1,.13-.12.32.32,0,0,1,.17,0,.48.48,0,0,1,.27.1l.34.23a2.62,2.62,0,0,0,.47.23,1.8,1.8,0,0,0,.64.1,1.32,1.32,0,0,0,.89-.27A1,1,0,0,0,34,19.5a.73.73,0,0,0-.14-.46,1.15,1.15,0,0,0-.38-.3,2.8,2.8,0,0,0-.53-.21l-.61-.19a5.34,5.34,0,0,1-.61-.24,2,2,0,0,1-.53-.36,1.67,1.67,0,0,1-.38-.56,2.15,2.15,0,0,1-.14-.83,2,2,0,0,1,.62-1.44,2.27,2.27,0,0,1,.74-.46,2.7,2.7,0,0,1,1-.18,3.38,3.38,0,0,1,1.18.2,2.66,2.66,0,0,1,.92.56Z" transform="translate(-0.18 -0.18)"/><path class="cls-3" d="M38.38,16.37a2.5,2.5,0,0,1,.89.15A2,2,0,0,1,40,17a2.06,2.06,0,0,1,.46.73,2.76,2.76,0,0,1,.17,1,1.79,1.79,0,0,1,0,.23.37.37,0,0,1,0,.15.18.18,0,0,1-.09.07l-.14,0H37.14a1.76,1.76,0,0,0,.43,1.16,1.32,1.32,0,0,0,1,.37,1.69,1.69,0,0,0,.52-.07,2.41,2.41,0,0,0,.38-.15l.28-.15a.48.48,0,0,1,.24-.07.27.27,0,0,1,.13,0,.29.29,0,0,1,.1.08l.36.45a2.06,2.06,0,0,1-.46.4,2.57,2.57,0,0,1-.53.26,2.93,2.93,0,0,1-.56.14,4.1,4.1,0,0,1-.56,0,2.74,2.74,0,0,1-1-.18,2.22,2.22,0,0,1-.8-.52,2.48,2.48,0,0,1-.54-.86,3.33,3.33,0,0,1-.19-1.19,2.84,2.84,0,0,1,.17-1,2.37,2.37,0,0,1,.49-.8,2.29,2.29,0,0,1,.77-.54A2.55,2.55,0,0,1,38.38,16.37Zm0,.88a1.14,1.14,0,0,0-.85.31,1.51,1.51,0,0,0-.39.87h2.32a1.55,1.55,0,0,0-.06-.45,1.05,1.05,0,0,0-.2-.37.94.94,0,0,0-.34-.25A1.16,1.16,0,0,0,38.4,17.25Z" transform="translate(-0.18 -0.18)"/><path class="cls-3" d="M42.92,14.15v7.43H41.68V14.15Z" transform="translate(-0.18 -0.18)"/><path class="cls-3" d="M46.43,16.37a2.5,2.5,0,0,1,.89.15A2,2,0,0,1,48,17a2.06,2.06,0,0,1,.46.73,2.76,2.76,0,0,1,.17,1,1.79,1.79,0,0,1,0,.23.37.37,0,0,1,0,.15.18.18,0,0,1-.09.07l-.14,0H45.2a1.76,1.76,0,0,0,.43,1.16,1.32,1.32,0,0,0,1,.37,1.69,1.69,0,0,0,.52-.07,2.41,2.41,0,0,0,.38-.15l.28-.15a.48.48,0,0,1,.24-.07.27.27,0,0,1,.13,0,.29.29,0,0,1,.1.08l.36.45a2.06,2.06,0,0,1-.46.4,2.57,2.57,0,0,1-.53.26,2.93,2.93,0,0,1-.56.14,4.1,4.1,0,0,1-.56,0,2.74,2.74,0,0,1-1-.18,2.22,2.22,0,0,1-.8-.52,2.48,2.48,0,0,1-.54-.86A3.33,3.33,0,0,1,44,18.9a2.84,2.84,0,0,1,.17-1,2.37,2.37,0,0,1,.49-.8,2.29,2.29,0,0,1,.77-.54A2.55,2.55,0,0,1,46.43,16.37Zm0,.88a1.14,1.14,0,0,0-.85.31,1.51,1.51,0,0,0-.39.87h2.32a1.55,1.55,0,0,0-.06-.45,1.05,1.05,0,0,0-.2-.37.94.94,0,0,0-.34-.25A1.16,1.16,0,0,0,46.46,17.25Z" transform="translate(-0.18 -0.18)"/><path class="cls-3" d="M53.26,17.53l-.11.11a.25.25,0,0,1-.15,0,.34.34,0,0,1-.19-.06l-.21-.13a1.6,1.6,0,0,0-.3-.13,1.36,1.36,0,0,0-.43-.06,1.3,1.3,0,0,0-.57.12,1.08,1.08,0,0,0-.41.34,1.52,1.52,0,0,0-.24.53,2.84,2.84,0,0,0-.08.71,2.78,2.78,0,0,0,.09.73,1.56,1.56,0,0,0,.25.54,1.09,1.09,0,0,0,.4.33,1.21,1.21,0,0,0,.53.11,1.32,1.32,0,0,0,.48-.07,1.48,1.48,0,0,0,.31-.16l.22-.16a.33.33,0,0,1,.21-.07.25.25,0,0,1,.23.12l.35.45a2.23,2.23,0,0,1-.45.4,2.39,2.39,0,0,1-.5.26,2.54,2.54,0,0,1-.53.14,3.83,3.83,0,0,1-.54,0,2.28,2.28,0,0,1-.9-.18A2.08,2.08,0,0,1,50,21a2.49,2.49,0,0,1-.5-.83A3.22,3.22,0,0,1,49.31,19a3.26,3.26,0,0,1,.16-1,2.37,2.37,0,0,1,.48-.83,2.19,2.19,0,0,1,.78-.55,2.69,2.69,0,0,1,1.07-.2,2.54,2.54,0,0,1,1,.19,2.46,2.46,0,0,1,.78.53Z" transform="translate(-0.18 -0.18)"/><path class="cls-3" d="M56.11,21.66a1.35,1.35,0,0,1-1-.38,1.45,1.45,0,0,1-.36-1V17.37h-.52a.24.24,0,0,1-.25-.26v-.49l.83-.13.26-1.4a.25.25,0,0,1,.09-.15.29.29,0,0,1,.18-.06H56v1.62h1.35v.88H56v2.78a.55.55,0,0,0,.12.38.41.41,0,0,0,.32.13.59.59,0,0,0,.19,0l.13-.06.1-.06.09,0a.14.14,0,0,1,.09,0l.07.08.37.6a1.87,1.87,0,0,1-.62.34A2.31,2.31,0,0,1,56.11,21.66Z" transform="translate(-0.18 -0.18)"/><path class="cls-3" d="M65.39,14.35v1.1H63.22v6.12H61.87V15.45H59.69v-1.1Z" transform="translate(-0.18 -0.18)"/><path class="cls-3" d="M67.1,23a.47.47,0,0,1-.14.2.44.44,0,0,1-.27.07h-.92l1-2.05-2.07-4.75h1.08a.34.34,0,0,1,.23.07.46.46,0,0,1,.12.16l1.1,2.66a2.32,2.32,0,0,1,.09.27q0,.14.07.28,0-.15.09-.28l.1-.27,1-2.65a.36.36,0,0,1,.13-.17.35.35,0,0,1,.21-.06h1Z" transform="translate(-0.18 -0.18)"/><path class="cls-3" d="M70.61,23.25v-6.8h.75a.37.37,0,0,1,.21.05.26.26,0,0,1,.11.17l.1.47a2.59,2.59,0,0,1,.71-.57,1.93,1.93,0,0,1,.94-.22,1.68,1.68,0,0,1,.77.18,1.72,1.72,0,0,1,.6.51,2.44,2.44,0,0,1,.39.82A4.14,4.14,0,0,1,75.33,19,3.52,3.52,0,0,1,75.18,20a2.62,2.62,0,0,1-.44.85,2.05,2.05,0,0,1-.7.56,2,2,0,0,1-.91.2,1.83,1.83,0,0,1-.74-.13,1.81,1.81,0,0,1-.54-.37v2.1ZM73,17.33a1.26,1.26,0,0,0-.66.16,1.9,1.9,0,0,0-.51.46v2.3a1.18,1.18,0,0,0,.46.36,1.38,1.38,0,0,0,.53.1,1.19,1.19,0,0,0,.51-.1,1,1,0,0,0,.38-.32,1.58,1.58,0,0,0,.24-.54,3.1,3.1,0,0,0,.08-.77,3.46,3.46,0,0,0-.07-.76,1.48,1.48,0,0,0-.21-.51.82.82,0,0,0-.33-.29A1,1,0,0,0,73,17.33Z" transform="translate(-0.18 -0.18)"/><path class="cls-3" d="M78.39,16.37a2.5,2.5,0,0,1,.89.15A2,2,0,0,1,80,17a2.06,2.06,0,0,1,.46.73,2.76,2.76,0,0,1,.17,1,1.79,1.79,0,0,1,0,.23.37.37,0,0,1,0,.15.18.18,0,0,1-.09.07l-.14,0H77.15a1.76,1.76,0,0,0,.43,1.16,1.32,1.32,0,0,0,1,.37,1.69,1.69,0,0,0,.52-.07,2.41,2.41,0,0,0,.38-.15l.28-.15a.48.48,0,0,1,.24-.07.27.27,0,0,1,.13,0,.29.29,0,0,1,.1.08l.36.45a2.06,2.06,0,0,1-.46.4,2.57,2.57,0,0,1-.53.26,2.93,2.93,0,0,1-.56.14,4.1,4.1,0,0,1-.56,0,2.74,2.74,0,0,1-1-.18,2.22,2.22,0,0,1-.8-.52,2.48,2.48,0,0,1-.54-.86,3.33,3.33,0,0,1-.19-1.19,2.84,2.84,0,0,1,.17-1,2.37,2.37,0,0,1,.49-.8,2.29,2.29,0,0,1,.77-.54A2.55,2.55,0,0,1,78.39,16.37Zm0,.88a1.14,1.14,0,0,0-.85.31,1.51,1.51,0,0,0-.39.87H79.5a1.55,1.55,0,0,0-.06-.45,1.05,1.05,0,0,0-.2-.37.94.94,0,0,0-.34-.25A1.16,1.16,0,0,0,78.41,17.25Z" transform="translate(-0.18 -0.18)"/><path class="cls-3" d="M151.76,15.66a.37.37,0,0,1-.13.16.32.32,0,0,1-.17,0,.44.44,0,0,1-.23-.08l-.29-.17a2.41,2.41,0,0,0-.4-.17,1.68,1.68,0,0,0-.54-.08,1.58,1.58,0,0,0-.49.07,1,1,0,0,0-.35.19.75.75,0,0,0-.21.29,1,1,0,0,0-.07.37.64.64,0,0,0,.14.43,1.19,1.19,0,0,0,.38.29,3.51,3.51,0,0,0,.54.21l.61.2a5.83,5.83,0,0,1,.61.25,2.11,2.11,0,0,1,.54.36,1.62,1.62,0,0,1,.38.53,1.84,1.84,0,0,1,.14.76,2.49,2.49,0,0,1-.17.92,2.12,2.12,0,0,1-.49.75,2.31,2.31,0,0,1-.79.5,2.9,2.9,0,0,1-1.06.18,3.44,3.44,0,0,1-.68-.07,3.61,3.61,0,0,1-.64-.19,3.32,3.32,0,0,1-.57-.3,2.79,2.79,0,0,1-.48-.39l.39-.65a.5.5,0,0,1,.13-.12.32.32,0,0,1,.17,0,.48.48,0,0,1,.27.1l.34.23a2.62,2.62,0,0,0,.47.23,1.8,1.8,0,0,0,.64.1,1.32,1.32,0,0,0,.89-.27,1,1,0,0,0,.31-.78.73.73,0,0,0-.14-.46,1.15,1.15,0,0,0-.38-.3,2.8,2.8,0,0,0-.53-.21l-.61-.19a5.34,5.34,0,0,1-.61-.24,2,2,0,0,1-.53-.36,1.67,1.67,0,0,1-.38-.56,2.15,2.15,0,0,1-.14-.83,2,2,0,0,1,.62-1.44,2.27,2.27,0,0,1,.74-.46,2.7,2.7,0,0,1,1-.18,3.38,3.38,0,0,1,1.18.2,2.66,2.66,0,0,1,.92.56Z" transform="translate(-0.18 -0.18)"/><path class="cls-3" d="M155.3,16.37a2.5,2.5,0,0,1,.89.15,2,2,0,0,1,.7.45,2.06,2.06,0,0,1,.46.73,2.76,2.76,0,0,1,.17,1,1.79,1.79,0,0,1,0,.23.37.37,0,0,1,0,.15.18.18,0,0,1-.09.07l-.14,0h-3.17a1.76,1.76,0,0,0,.43,1.16,1.32,1.32,0,0,0,1,.37,1.69,1.69,0,0,0,.52-.07,2.41,2.41,0,0,0,.38-.15l.28-.15a.48.48,0,0,1,.24-.07.27.27,0,0,1,.13,0,.29.29,0,0,1,.1.08l.36.45a2.06,2.06,0,0,1-.46.4,2.57,2.57,0,0,1-.53.26,2.93,2.93,0,0,1-.56.14,4.1,4.1,0,0,1-.56,0,2.74,2.74,0,0,1-1-.18,2.22,2.22,0,0,1-.8-.52,2.48,2.48,0,0,1-.54-.86,3.33,3.33,0,0,1-.19-1.19,2.84,2.84,0,0,1,.17-1,2.37,2.37,0,0,1,.49-.8,2.29,2.29,0,0,1,.77-.54A2.55,2.55,0,0,1,155.3,16.37Zm0,.88a1.14,1.14,0,0,0-.85.31,1.51,1.51,0,0,0-.39.87h2.32a1.55,1.55,0,0,0-.06-.45,1.05,1.05,0,0,0-.2-.37.94.94,0,0,0-.34-.25A1.16,1.16,0,0,0,155.33,17.25Z" transform="translate(-0.18 -0.18)"/><path class="cls-3" d="M159.84,14.15v7.43h-1.23V14.15Z" transform="translate(-0.18 -0.18)"/><path class="cls-3" d="M163.36,16.37a2.5,2.5,0,0,1,.89.15,2,2,0,0,1,.7.45,2.06,2.06,0,0,1,.46.73,2.76,2.76,0,0,1,.17,1,1.79,1.79,0,0,1,0,.23.37.37,0,0,1,0,.15.18.18,0,0,1-.09.07l-.14,0h-3.17a1.76,1.76,0,0,0,.43,1.16,1.32,1.32,0,0,0,1,.37,1.69,1.69,0,0,0,.52-.07,2.41,2.41,0,0,0,.38-.15l.28-.15a.48.48,0,0,1,.24-.07.27.27,0,0,1,.13,0,.29.29,0,0,1,.1.08l.36.45a2.06,2.06,0,0,1-.46.4,2.57,2.57,0,0,1-.53.26,2.93,2.93,0,0,1-.56.14,4.1,4.1,0,0,1-.56,0,2.74,2.74,0,0,1-1-.18,2.22,2.22,0,0,1-.8-.52,2.48,2.48,0,0,1-.54-.86,3.33,3.33,0,0,1-.19-1.19,2.84,2.84,0,0,1,.17-1,2.37,2.37,0,0,1,.49-.8,2.29,2.29,0,0,1,.77-.54A2.55,2.55,0,0,1,163.36,16.37Zm0,.88a1.14,1.14,0,0,0-.85.31,1.51,1.51,0,0,0-.39.87h2.32a1.55,1.55,0,0,0-.06-.45,1.05,1.05,0,0,0-.2-.37.94.94,0,0,0-.34-.25A1.16,1.16,0,0,0,163.38,17.25Z" transform="translate(-0.18 -0.18)"/><path class="cls-3" d="M170.19,17.53l-.11.11a.25.25,0,0,1-.15,0,.34.34,0,0,1-.19-.06l-.21-.13a1.6,1.6,0,0,0-.3-.13,1.36,1.36,0,0,0-.43-.06,1.3,1.3,0,0,0-.57.12,1.08,1.08,0,0,0-.41.34,1.52,1.52,0,0,0-.24.53,2.84,2.84,0,0,0-.08.71,2.78,2.78,0,0,0,.09.73,1.56,1.56,0,0,0,.25.54,1.09,1.09,0,0,0,.4.33,1.21,1.21,0,0,0,.53.11,1.32,1.32,0,0,0,.48-.07,1.48,1.48,0,0,0,.31-.16l.22-.16a.33.33,0,0,1,.21-.07.25.25,0,0,1,.23.12l.35.45a2.23,2.23,0,0,1-.45.4,2.39,2.39,0,0,1-.5.26,2.54,2.54,0,0,1-.53.14,3.83,3.83,0,0,1-.54,0,2.28,2.28,0,0,1-.9-.18,2.08,2.08,0,0,1-.73-.52,2.49,2.49,0,0,1-.5-.83,3.22,3.22,0,0,1-.18-1.12,3.26,3.26,0,0,1,.16-1,2.37,2.37,0,0,1,.48-.83,2.19,2.19,0,0,1,.78-.55,2.69,2.69,0,0,1,1.07-.2,2.54,2.54,0,0,1,1,.19,2.46,2.46,0,0,1,.78.53Z" transform="translate(-0.18 -0.18)"/><path class="cls-3" d="M173,21.66a1.35,1.35,0,0,1-1-.38,1.45,1.45,0,0,1-.36-1V17.37h-.52a.24.24,0,0,1-.25-.26v-.49l.83-.13.26-1.4a.25.25,0,0,1,.09-.15.29.29,0,0,1,.18-.06h.64v1.62h1.35v.88h-1.35v2.78a.55.55,0,0,0,.12.38.41.41,0,0,0,.32.13.59.59,0,0,0,.19,0l.13-.06.1-.06.09,0a.14.14,0,0,1,.09,0l.07.08.37.6a1.87,1.87,0,0,1-.62.34A2.31,2.31,0,0,1,173,21.66Z" transform="translate(-0.18 -0.18)"/><path class="cls-3" d="M181.1,15.66a.37.37,0,0,1-.13.16.32.32,0,0,1-.17,0,.44.44,0,0,1-.23-.08l-.29-.17a2.41,2.41,0,0,0-.4-.17,1.68,1.68,0,0,0-.54-.08,1.58,1.58,0,0,0-.49.07,1,1,0,0,0-.35.19.75.75,0,0,0-.21.29,1,1,0,0,0-.07.37.64.64,0,0,0,.14.43,1.19,1.19,0,0,0,.38.29,3.51,3.51,0,0,0,.54.21l.61.2a5.83,5.83,0,0,1,.61.25A2.11,2.11,0,0,1,181,18a1.62,1.62,0,0,1,.38.53,1.84,1.84,0,0,1,.14.76,2.49,2.49,0,0,1-.17.92,2.12,2.12,0,0,1-.49.75,2.31,2.31,0,0,1-.79.5,2.9,2.9,0,0,1-1.06.18,3.44,3.44,0,0,1-.68-.07,3.61,3.61,0,0,1-.64-.19,3.32,3.32,0,0,1-.57-.3,2.79,2.79,0,0,1-.48-.39l.39-.65a.5.5,0,0,1,.13-.12.32.32,0,0,1,.17,0,.48.48,0,0,1,.27.1l.34.23a2.62,2.62,0,0,0,.47.23,1.8,1.8,0,0,0,.64.1,1.32,1.32,0,0,0,.89-.27,1,1,0,0,0,.31-.78.73.73,0,0,0-.14-.46,1.15,1.15,0,0,0-.38-.3,2.8,2.8,0,0,0-.53-.21l-.61-.19a5.34,5.34,0,0,1-.61-.24,2,2,0,0,1-.53-.36,1.67,1.67,0,0,1-.38-.56,2.15,2.15,0,0,1-.14-.83,2,2,0,0,1,.62-1.44,2.27,2.27,0,0,1,.74-.46,2.7,2.7,0,0,1,1-.18,3.38,3.38,0,0,1,1.18.2,2.66,2.66,0,0,1,.92.56Z" transform="translate(-0.18 -0.18)"/><path class="cls-3" d="M184,15a.71.71,0,0,1-.06.3.82.82,0,0,1-.43.41.77.77,0,0,1-.31.06.74.74,0,0,1-.3-.06.79.79,0,0,1-.25-.17.8.8,0,0,1-.17-.25.72.72,0,0,1-.06-.3.77.77,0,0,1,.06-.31.79.79,0,0,1,.17-.25.81.81,0,0,1,.25-.17.75.75,0,0,1,.3-.06.78.78,0,0,1,.31.06.83.83,0,0,1,.25.17.81.81,0,0,1,.17.25A.76.76,0,0,1,184,15Zm-.19,1.5v5.13H182.6V16.45Z" transform="translate(-0.18 -0.18)"/><path class="cls-3" d="M188.94,17a.69.69,0,0,1,0,.25.82.82,0,0,1-.11.21l-2.44,3.21h2.53v1h-4v-.52a.64.64,0,0,1,0-.2.72.72,0,0,1,.13-.22l2.46-3.25H185v-.94h3.89Z" transform="translate(-0.18 -0.18)"/><path class="cls-3" d="M192,16.37a2.5,2.5,0,0,1,.89.15,2,2,0,0,1,.7.45,2.06,2.06,0,0,1,.46.73,2.76,2.76,0,0,1,.17,1,1.79,1.79,0,0,1,0,.23.37.37,0,0,1,0,.15.18.18,0,0,1-.09.07l-.14,0h-3.17a1.76,1.76,0,0,0,.43,1.16,1.32,1.32,0,0,0,1,.37,1.69,1.69,0,0,0,.52-.07,2.41,2.41,0,0,0,.38-.15l.28-.15a.48.48,0,0,1,.24-.07.27.27,0,0,1,.13,0,.29.29,0,0,1,.1.08l.36.45a2.06,2.06,0,0,1-.46.4,2.57,2.57,0,0,1-.53.26,2.93,2.93,0,0,1-.56.14,4.1,4.1,0,0,1-.56,0,2.74,2.74,0,0,1-1-.18,2.22,2.22,0,0,1-.8-.52,2.48,2.48,0,0,1-.54-.86,3.33,3.33,0,0,1-.19-1.19,2.84,2.84,0,0,1,.17-1,2.37,2.37,0,0,1,.49-.8,2.29,2.29,0,0,1,.77-.54A2.55,2.55,0,0,1,192,16.37Zm0,.88a1.14,1.14,0,0,0-.85.31,1.51,1.51,0,0,0-.39.87h2.32a1.55,1.55,0,0,0-.06-.45,1.05,1.05,0,0,0-.2-.37.94.94,0,0,0-.34-.25A1.16,1.16,0,0,0,192.07,17.25Z" transform="translate(-0.18 -0.18)"/><path class="cls-3" d="M268.68,19.87a.25.25,0,0,1,.19.08l.53.58a2.91,2.91,0,0,1-1.08.83,3.73,3.73,0,0,1-1.54.29,3.65,3.65,0,0,1-1.45-.27,3.19,3.19,0,0,1-1.1-.77,3.35,3.35,0,0,1-.7-1.17,4.38,4.38,0,0,1-.24-1.49,4,4,0,0,1,.27-1.49,3.37,3.37,0,0,1,1.93-1.93,4,4,0,0,1,1.51-.27,3.57,3.57,0,0,1,1.41.26,3.3,3.3,0,0,1,1,.68l-.45.63a.4.4,0,0,1-.1.1.29.29,0,0,1-.17,0,.39.39,0,0,1-.23-.09l-.31-.19a2.45,2.45,0,0,0-.47-.2,2.7,2.7,0,0,0-1.66.09,2.08,2.08,0,0,0-.73.51,2.34,2.34,0,0,0-.48.8,3.09,3.09,0,0,0-.17,1.06,3.18,3.18,0,0,0,.17,1.09,2.39,2.39,0,0,0,.47.8,2,2,0,0,0,.69.5,2.15,2.15,0,0,0,.86.17,3.74,3.74,0,0,0,.5,0,2.1,2.1,0,0,0,.41-.1,1.83,1.83,0,0,0,.35-.17,2.22,2.22,0,0,0,.33-.25l.1-.07Z" transform="translate(-0.18 -0.18)"/><path class="cls-3" d="M270.35,21.58V16.45h.72a.39.39,0,0,1,.27.07.4.4,0,0,1,.1.24l.08.62a2.44,2.44,0,0,1,.65-.75,1.36,1.36,0,0,1,.83-.27,1.07,1.07,0,0,1,.63.18l-.16.92a.19.19,0,0,1-.06.13.22.22,0,0,1-.14,0l-.2,0a1.4,1.4,0,0,0-.35,0,1,1,0,0,0-.66.21,1.64,1.64,0,0,0-.46.62v3.19Z" transform="translate(-0.18 -0.18)"/><path class="cls-3" d="M276.55,16.37a2.5,2.5,0,0,1,.89.15,2,2,0,0,1,.7.45,2.06,2.06,0,0,1,.46.73,2.76,2.76,0,0,1,.17,1,1.79,1.79,0,0,1,0,.23.37.37,0,0,1,0,.15.18.18,0,0,1-.09.07l-.14,0h-3.17a1.76,1.76,0,0,0,.43,1.16,1.32,1.32,0,0,0,1,.37,1.69,1.69,0,0,0,.52-.07,2.41,2.41,0,0,0,.38-.15l.28-.15a.48.48,0,0,1,.24-.07.27.27,0,0,1,.13,0,.29.29,0,0,1,.1.08l.36.45a2.06,2.06,0,0,1-.46.4,2.57,2.57,0,0,1-.53.26,2.93,2.93,0,0,1-.56.14,4.1,4.1,0,0,1-.56,0,2.74,2.74,0,0,1-1-.18,2.22,2.22,0,0,1-.8-.52,2.48,2.48,0,0,1-.54-.86,3.33,3.33,0,0,1-.19-1.19,2.84,2.84,0,0,1,.17-1,2.37,2.37,0,0,1,.49-.8,2.29,2.29,0,0,1,.77-.54A2.55,2.55,0,0,1,276.55,16.37Zm0,.88a1.14,1.14,0,0,0-.85.31,1.51,1.51,0,0,0-.39.87h2.32a1.55,1.55,0,0,0-.06-.45,1.05,1.05,0,0,0-.2-.37.94.94,0,0,0-.34-.25A1.16,1.16,0,0,0,276.57,17.25Z" transform="translate(-0.18 -0.18)"/><path class="cls-3" d="M283.79,21.58h-.56a.59.59,0,0,1-.27-.05.33.33,0,0,1-.15-.21l-.11-.36a4.22,4.22,0,0,1-.38.31,2.36,2.36,0,0,1-.39.22,2,2,0,0,1-.42.14,2.57,2.57,0,0,1-.5,0,2,2,0,0,1-.6-.09,1.3,1.3,0,0,1-.47-.26,1.2,1.2,0,0,1-.31-.44,1.55,1.55,0,0,1-.11-.61,1.2,1.2,0,0,1,.15-.57,1.44,1.44,0,0,1,.51-.51,3.25,3.25,0,0,1,.94-.38,6,6,0,0,1,1.47-.15v-.3a1.15,1.15,0,0,0-.22-.77.79.79,0,0,0-.63-.25,1.54,1.54,0,0,0-.5.07,2,2,0,0,0-.35.16l-.27.16a.55.55,0,0,1-.27.07.36.36,0,0,1-.21-.06.51.51,0,0,1-.15-.16l-.23-.4a3.05,3.05,0,0,1,2.13-.81,2.07,2.07,0,0,1,.8.15,1.72,1.72,0,0,1,.6.41,1.76,1.76,0,0,1,.37.63,2.41,2.41,0,0,1,.13.8Zm-2.4-.77a1.63,1.63,0,0,0,.35,0,1.34,1.34,0,0,0,.3-.1,1.61,1.61,0,0,0,.27-.17,2.53,2.53,0,0,0,.27-.24V19.4a5,5,0,0,0-.9.07,2.37,2.37,0,0,0-.58.17.75.75,0,0,0-.31.25.55.55,0,0,0-.09.31.54.54,0,0,0,.19.47A.83.83,0,0,0,281.39,20.81Z" transform="translate(-0.18 -0.18)"/><path class="cls-3" d="M286.69,21.66a1.35,1.35,0,0,1-1-.38,1.45,1.45,0,0,1-.36-1V17.37h-.52a.24.24,0,0,1-.25-.26v-.49l.83-.13.26-1.4a.25.25,0,0,1,.09-.15.29.29,0,0,1,.18-.06h.64v1.62h1.35v.88h-1.35v2.78a.55.55,0,0,0,.12.38.41.41,0,0,0,.32.13.59.59,0,0,0,.19,0l.13-.06.1-.06.09,0a.14.14,0,0,1,.09,0l.07.08.37.6a1.87,1.87,0,0,1-.62.34A2.31,2.31,0,0,1,286.69,21.66Z" transform="translate(-0.18 -0.18)"/><path class="cls-3" d="M291,16.37a2.5,2.5,0,0,1,.89.15,2,2,0,0,1,.7.45,2.06,2.06,0,0,1,.46.73,2.76,2.76,0,0,1,.17,1,1.79,1.79,0,0,1,0,.23.37.37,0,0,1,0,.15.18.18,0,0,1-.09.07l-.14,0h-3.17a1.76,1.76,0,0,0,.43,1.16,1.32,1.32,0,0,0,1,.37,1.69,1.69,0,0,0,.52-.07,2.41,2.41,0,0,0,.38-.15l.28-.15a.48.48,0,0,1,.24-.07.27.27,0,0,1,.13,0,.29.29,0,0,1,.1.08l.36.45a2.06,2.06,0,0,1-.46.4,2.57,2.57,0,0,1-.53.26,2.93,2.93,0,0,1-.56.14,4.1,4.1,0,0,1-.56,0,2.74,2.74,0,0,1-1-.18,2.22,2.22,0,0,1-.8-.52,2.48,2.48,0,0,1-.54-.86,3.33,3.33,0,0,1-.19-1.19,2.84,2.84,0,0,1,.17-1,2.37,2.37,0,0,1,.49-.8,2.29,2.29,0,0,1,.77-.54A2.55,2.55,0,0,1,291,16.37Zm0,.88a1.14,1.14,0,0,0-.85.31,1.51,1.51,0,0,0-.39.87h2.32A1.55,1.55,0,0,0,292,18a1.05,1.05,0,0,0-.2-.37.94.94,0,0,0-.34-.25A1.16,1.16,0,0,0,291,17.25Z" transform="translate(-0.18 -0.18)"/><path class="cls-3" d="M301.19,19.87a.25.25,0,0,1,.19.08l.53.58a2.91,2.91,0,0,1-1.08.83,3.73,3.73,0,0,1-1.54.29,3.65,3.65,0,0,1-1.45-.27,3.19,3.19,0,0,1-1.1-.77,3.35,3.35,0,0,1-.7-1.17A4.38,4.38,0,0,1,295.8,18a4,4,0,0,1,.27-1.49A3.37,3.37,0,0,1,298,14.54a4,4,0,0,1,1.51-.27,3.57,3.57,0,0,1,1.41.26,3.3,3.3,0,0,1,1,.68l-.45.63a.4.4,0,0,1-.1.1.29.29,0,0,1-.17,0,.39.39,0,0,1-.23-.09l-.31-.19a2.45,2.45,0,0,0-.47-.2,2.7,2.7,0,0,0-1.66.09,2.08,2.08,0,0,0-.73.51,2.34,2.34,0,0,0-.48.8,3.09,3.09,0,0,0-.17,1.06,3.18,3.18,0,0,0,.17,1.09,2.39,2.39,0,0,0,.47.8,2,2,0,0,0,.69.5,2.15,2.15,0,0,0,.86.17,3.74,3.74,0,0,0,.5,0,2.1,2.1,0,0,0,.41-.1,1.83,1.83,0,0,0,.35-.17A2.22,2.22,0,0,0,301,20l.1-.07Z" transform="translate(-0.18 -0.18)"/><path class="cls-3" d="M302.86,21.58V14.15h1.23V17a2.62,2.62,0,0,1,.66-.46,1.91,1.91,0,0,1,.84-.17,1.84,1.84,0,0,1,.75.14,1.47,1.47,0,0,1,.54.4,1.76,1.76,0,0,1,.33.61,2.63,2.63,0,0,1,.11.79v3.27h-1.23V18.31a1.1,1.1,0,0,0-.22-.73.81.81,0,0,0-.65-.26,1.29,1.29,0,0,0-.6.15,2.15,2.15,0,0,0-.53.4v3.71Z" transform="translate(-0.18 -0.18)"/><path class="cls-3" d="M312.56,21.58H312a.59.59,0,0,1-.27-.05.33.33,0,0,1-.15-.21l-.11-.36a4.22,4.22,0,0,1-.38.31,2.36,2.36,0,0,1-.39.22,2,2,0,0,1-.42.14,2.57,2.57,0,0,1-.5,0,2,2,0,0,1-.6-.09,1.3,1.3,0,0,1-.47-.26,1.2,1.2,0,0,1-.31-.44,1.55,1.55,0,0,1-.11-.61,1.2,1.2,0,0,1,.15-.57,1.44,1.44,0,0,1,.51-.51,3.25,3.25,0,0,1,.94-.38,6,6,0,0,1,1.47-.15v-.3a1.15,1.15,0,0,0-.22-.77.79.79,0,0,0-.63-.25,1.54,1.54,0,0,0-.5.07,2,2,0,0,0-.35.16l-.27.16a.55.55,0,0,1-.27.07.36.36,0,0,1-.21-.06.51.51,0,0,1-.15-.16l-.23-.4a3.05,3.05,0,0,1,2.13-.81,2.07,2.07,0,0,1,.8.15,1.72,1.72,0,0,1,.6.41,1.76,1.76,0,0,1,.37.63,2.41,2.41,0,0,1,.13.8Zm-2.4-.77a1.63,1.63,0,0,0,.35,0,1.34,1.34,0,0,0,.3-.1,1.61,1.61,0,0,0,.27-.17,2.53,2.53,0,0,0,.27-.24V19.4a5,5,0,0,0-.9.07,2.37,2.37,0,0,0-.58.17.75.75,0,0,0-.31.25.55.55,0,0,0-.09.31.54.54,0,0,0,.19.47A.83.83,0,0,0,310.16,20.81Z" transform="translate(-0.18 -0.18)"/><path class="cls-3" d="M313.78,21.58V16.45h.72a.39.39,0,0,1,.27.07.4.4,0,0,1,.1.24l.08.62a2.44,2.44,0,0,1,.65-.75,1.36,1.36,0,0,1,.83-.27,1.07,1.07,0,0,1,.63.18l-.16.92a.19.19,0,0,1-.06.13.22.22,0,0,1-.14,0l-.2,0a1.4,1.4,0,0,0-.35,0,1,1,0,0,0-.66.21,1.64,1.64,0,0,0-.46.62v3.19Z" transform="translate(-0.18 -0.18)"/><path class="cls-3" d="M319.55,21.66a1.35,1.35,0,0,1-1-.38,1.45,1.45,0,0,1-.36-1V17.37h-.52a.24.24,0,0,1-.25-.26v-.49l.83-.13.26-1.4a.25.25,0,0,1,.09-.15.29.29,0,0,1,.18-.06h.64v1.62h1.35v.88H319.4v2.78a.55.55,0,0,0,.12.38.41.41,0,0,0,.32.13.59.59,0,0,0,.19,0l.13-.06.1-.06.09,0a.14.14,0,0,1,.09,0l.07.08.37.6a1.87,1.87,0,0,1-.62.34A2.31,2.31,0,0,1,319.55,21.66Z" transform="translate(-0.18 -0.18)"/><path class="cls-3" d="M387,15.66a.37.37,0,0,1-.13.16.32.32,0,0,1-.17,0,.44.44,0,0,1-.23-.08l-.29-.17a2.41,2.41,0,0,0-.4-.17,1.68,1.68,0,0,0-.54-.08,1.58,1.58,0,0,0-.49.07,1,1,0,0,0-.35.19.75.75,0,0,0-.21.29,1,1,0,0,0-.07.37.64.64,0,0,0,.14.43,1.19,1.19,0,0,0,.38.29,3.51,3.51,0,0,0,.54.21l.61.2a5.83,5.83,0,0,1,.61.25A2.11,2.11,0,0,1,387,18a1.62,1.62,0,0,1,.38.53,1.84,1.84,0,0,1,.14.76,2.49,2.49,0,0,1-.17.92,2.12,2.12,0,0,1-.49.75,2.31,2.31,0,0,1-.79.5,2.9,2.9,0,0,1-1.06.18,3.44,3.44,0,0,1-.68-.07,3.61,3.61,0,0,1-.64-.19,3.32,3.32,0,0,1-.57-.3,2.79,2.79,0,0,1-.48-.39l.39-.65a.5.5,0,0,1,.13-.12.32.32,0,0,1,.17,0,.48.48,0,0,1,.27.1l.34.23a2.62,2.62,0,0,0,.47.23,1.8,1.8,0,0,0,.64.1,1.32,1.32,0,0,0,.89-.27,1,1,0,0,0,.31-.78.73.73,0,0,0-.14-.46,1.15,1.15,0,0,0-.38-.3,2.8,2.8,0,0,0-.53-.21l-.61-.19a5.34,5.34,0,0,1-.61-.24,2,2,0,0,1-.53-.36,1.67,1.67,0,0,1-.38-.56,2.15,2.15,0,0,1-.14-.83,2,2,0,0,1,.62-1.44,2.27,2.27,0,0,1,.74-.46,2.7,2.7,0,0,1,1-.18,3.38,3.38,0,0,1,1.18.2,2.66,2.66,0,0,1,.92.56Z" transform="translate(-0.18 -0.18)"/><path class="cls-3" d="M389.58,16.45v3.26a1.09,1.09,0,0,0,.22.73.81.81,0,0,0,.65.26,1.31,1.31,0,0,0,.6-.14,2.11,2.11,0,0,0,.53-.39V16.45h1.23v5.13h-.75a.3.3,0,0,1-.31-.23l-.08-.41a3.66,3.66,0,0,1-.33.29,2,2,0,0,1-.78.37,2.07,2.07,0,0,1-.48.05,1.82,1.82,0,0,1-.74-.14,1.49,1.49,0,0,1-.54-.4,1.77,1.77,0,0,1-.33-.62,2.61,2.61,0,0,1-.11-.79V16.45Z" transform="translate(-0.18 -0.18)"/><path class="cls-3" d="M394.15,21.58V14.15h1.24v2.93a2.43,2.43,0,0,1,.69-.52,2,2,0,0,1,.9-.19,1.66,1.66,0,0,1,1.37.67,2.41,2.41,0,0,1,.39.81,4.1,4.1,0,0,1,.14,1.12,3.52,3.52,0,0,1-.15,1.06,2.61,2.61,0,0,1-.44.85,2,2,0,0,1-.69.56,2,2,0,0,1-.91.2,1.82,1.82,0,0,1-.43,0,1.51,1.51,0,0,1-.35-.13,1.53,1.53,0,0,1-.3-.21,2.49,2.49,0,0,1-.26-.27l-.06.34a.31.31,0,0,1-.1.19.32.32,0,0,1-.2.06Zm2.4-4.25a1.26,1.26,0,0,0-.66.16,1.89,1.89,0,0,0-.51.46v2.3a1.17,1.17,0,0,0,.46.36,1.39,1.39,0,0,0,.54.1,1.18,1.18,0,0,0,.51-.1,1,1,0,0,0,.38-.32,1.58,1.58,0,0,0,.24-.54,3.1,3.1,0,0,0,.08-.77,3.43,3.43,0,0,0-.07-.76,1.47,1.47,0,0,0-.21-.51.82.82,0,0,0-.33-.29A1,1,0,0,0,396.55,17.33Z" transform="translate(-0.18 -0.18)"/><path class="cls-3" d="M402.88,17.45a.33.33,0,0,1-.1.11.27.27,0,0,1-.14,0,.44.44,0,0,1-.19-.05l-.24-.11-.31-.11a1.46,1.46,0,0,0-.41-.05,1,1,0,0,0-.57.16.48.48,0,0,0-.21.4.39.39,0,0,0,.11.28,1,1,0,0,0,.28.2,2.79,2.79,0,0,0,.4.15l.46.15.46.18a1.6,1.6,0,0,1,.4.26,1.15,1.15,0,0,1,.39.91,1.7,1.7,0,0,1-.14.68,1.5,1.5,0,0,1-.4.54,1.85,1.85,0,0,1-.64.35,2.78,2.78,0,0,1-.88.13,2.83,2.83,0,0,1-.52,0,3.07,3.07,0,0,1-.49-.13,2.67,2.67,0,0,1-.43-.2,2.09,2.09,0,0,1-.35-.25l.29-.47a.4.4,0,0,1,.13-.13.36.36,0,0,1,.19,0,.4.4,0,0,1,.22.06l.24.14a2.05,2.05,0,0,0,.32.14,1.39,1.39,0,0,0,.46.06,1.21,1.21,0,0,0,.38-.05.8.8,0,0,0,.26-.14.52.52,0,0,0,.15-.2.59.59,0,0,0,0-.23.42.42,0,0,0-.11-.3.94.94,0,0,0-.28-.2,2.81,2.81,0,0,0-.41-.15l-.46-.15a4.24,4.24,0,0,1-.46-.19,1.56,1.56,0,0,1-.41-.27,1.23,1.23,0,0,1-.29-.4,1.42,1.42,0,0,1-.11-.58,1.48,1.48,0,0,1,.13-.6,1.41,1.41,0,0,1,.37-.5,1.82,1.82,0,0,1,.6-.34,2.52,2.52,0,0,1,.84-.13,2.56,2.56,0,0,1,1,.17,2.18,2.18,0,0,1,.73.46Z" transform="translate(-0.18 -0.18)"/><path class="cls-3" d="M407.81,17.53l-.11.11a.25.25,0,0,1-.15,0,.34.34,0,0,1-.19-.06l-.21-.13a1.6,1.6,0,0,0-.3-.13,1.36,1.36,0,0,0-.43-.06,1.3,1.3,0,0,0-.57.12,1.08,1.08,0,0,0-.41.34,1.52,1.52,0,0,0-.24.53,2.84,2.84,0,0,0-.08.71,2.78,2.78,0,0,0,.09.73,1.56,1.56,0,0,0,.25.54,1.09,1.09,0,0,0,.4.33,1.21,1.21,0,0,0,.53.11,1.32,1.32,0,0,0,.48-.07,1.48,1.48,0,0,0,.31-.16l.22-.16a.33.33,0,0,1,.21-.07.25.25,0,0,1,.23.12l.35.45a2.23,2.23,0,0,1-.45.4,2.39,2.39,0,0,1-.5.26,2.54,2.54,0,0,1-.53.14,3.83,3.83,0,0,1-.54,0,2.28,2.28,0,0,1-.9-.18,2.08,2.08,0,0,1-.73-.52,2.49,2.49,0,0,1-.5-.83,3.22,3.22,0,0,1-.18-1.12,3.26,3.26,0,0,1,.16-1,2.37,2.37,0,0,1,.48-.83,2.19,2.19,0,0,1,.78-.55,2.69,2.69,0,0,1,1.07-.2,2.54,2.54,0,0,1,1,.19,2.46,2.46,0,0,1,.78.53Z" transform="translate(-0.18 -0.18)"/><path class="cls-3" d="M409,21.58V16.45h.72a.39.39,0,0,1,.27.07.4.4,0,0,1,.1.24l.08.62a2.44,2.44,0,0,1,.65-.75,1.36,1.36,0,0,1,.83-.27,1.07,1.07,0,0,1,.63.18l-.16.92a.19.19,0,0,1-.06.13.22.22,0,0,1-.14,0l-.2,0a1.4,1.4,0,0,0-.35,0,1,1,0,0,0-.66.21,1.64,1.64,0,0,0-.46.62v3.19Z" transform="translate(-0.18 -0.18)"/><path class="cls-3" d="M414.56,15a.71.71,0,0,1-.06.3.82.82,0,0,1-.43.41.77.77,0,0,1-.31.06.74.74,0,0,1-.3-.06.79.79,0,0,1-.25-.17.8.8,0,0,1-.17-.25A.72.72,0,0,1,413,15a.77.77,0,0,1,.06-.31.79.79,0,0,1,.17-.25.81.81,0,0,1,.25-.17.75.75,0,0,1,.3-.06.78.78,0,0,1,.31.06.83.83,0,0,1,.25.17.81.81,0,0,1,.17.25A.76.76,0,0,1,414.56,15Zm-.19,1.5v5.13h-1.23V16.45Z" transform="translate(-0.18 -0.18)"/><path class="cls-3" d="M415.77,23.25v-6.8h.75a.37.37,0,0,1,.21.05.26.26,0,0,1,.11.17l.1.47a2.59,2.59,0,0,1,.71-.57,1.93,1.93,0,0,1,.94-.22,1.68,1.68,0,0,1,.77.18,1.72,1.72,0,0,1,.6.51,2.44,2.44,0,0,1,.39.82,4.14,4.14,0,0,1,.14,1.12,3.52,3.52,0,0,1-.15,1.06,2.62,2.62,0,0,1-.44.85,2.05,2.05,0,0,1-.7.56,2,2,0,0,1-.91.2,1.83,1.83,0,0,1-.74-.13,1.81,1.81,0,0,1-.54-.37v2.1Zm2.4-5.92a1.26,1.26,0,0,0-.66.16,1.9,1.9,0,0,0-.51.46v2.3a1.18,1.18,0,0,0,.46.36,1.38,1.38,0,0,0,.53.1,1.19,1.19,0,0,0,.51-.1,1,1,0,0,0,.38-.32,1.58,1.58,0,0,0,.24-.54,3.1,3.1,0,0,0,.08-.77,3.46,3.46,0,0,0-.07-.76,1.48,1.48,0,0,0-.21-.51.82.82,0,0,0-.33-.29A1,1,0,0,0,418.17,17.33Z" transform="translate(-0.18 -0.18)"/><path class="cls-3" d="M423.11,21.66a1.35,1.35,0,0,1-1-.38,1.45,1.45,0,0,1-.36-1V17.37h-.52a.24.24,0,0,1-.25-.26v-.49l.83-.13.26-1.4a.25.25,0,0,1,.09-.15.29.29,0,0,1,.18-.06H423v1.62h1.35v.88H423v2.78a.55.55,0,0,0,.12.38.41.41,0,0,0,.32.13.59.59,0,0,0,.19,0l.13-.06.1-.06.09,0a.14.14,0,0,1,.09,0l.07.08.37.6a1.87,1.87,0,0,1-.62.34A2.31,2.31,0,0,1,423.11,21.66Z" transform="translate(-0.18 -0.18)"/><path class="cls-3" d="M426.79,15a.71.71,0,0,1-.06.3.82.82,0,0,1-.43.41.77.77,0,0,1-.31.06.74.74,0,0,1-.3-.06.79.79,0,0,1-.25-.17.8.8,0,0,1-.17-.25.72.72,0,0,1-.06-.3.77.77,0,0,1,.06-.31.79.79,0,0,1,.17-.25.81.81,0,0,1,.25-.17.75.75,0,0,1,.3-.06.78.78,0,0,1,.31.06.83.83,0,0,1,.25.17.81.81,0,0,1,.17.25A.76.76,0,0,1,426.79,15Zm-.19,1.5v5.13h-1.23V16.45Z" transform="translate(-0.18 -0.18)"/><path class="cls-3" d="M430.19,16.37a2.8,2.8,0,0,1,1,.19,2.25,2.25,0,0,1,.8.52,2.36,2.36,0,0,1,.51.83,3.44,3.44,0,0,1,0,2.19,2.41,2.41,0,0,1-.51.83,2.22,2.22,0,0,1-.8.53,3,3,0,0,1-2.09,0,2.24,2.24,0,0,1-.8-.53,2.38,2.38,0,0,1-.51-.83,3.39,3.39,0,0,1,0-2.19,2.32,2.32,0,0,1,.51-.83,2.27,2.27,0,0,1,.8-.52A2.83,2.83,0,0,1,430.19,16.37Zm0,4.33a1.08,1.08,0,0,0,.95-.43,2.15,2.15,0,0,0,.31-1.26,2.17,2.17,0,0,0-.31-1.27,1.08,1.08,0,0,0-.95-.44,1.1,1.1,0,0,0-1,.44,2.17,2.17,0,0,0-.31,1.26,2.14,2.14,0,0,0,.31,1.26A1.1,1.1,0,0,0,430.19,20.7Z" transform="translate(-0.18 -0.18)"/><path class="cls-3" d="M433.69,21.58V16.45h.75a.3.3,0,0,1,.32.23l.08.4a2.77,2.77,0,0,1,.33-.29,2.3,2.3,0,0,1,.37-.23,1.89,1.89,0,0,1,.41-.15,2.17,2.17,0,0,1,.48,0,1.83,1.83,0,0,1,.74.14,1.46,1.46,0,0,1,.54.4,1.77,1.77,0,0,1,.33.61,2.61,2.61,0,0,1,.11.79v3.27h-1.24V18.31a1.1,1.1,0,0,0-.22-.73.81.81,0,0,0-.65-.26,1.29,1.29,0,0,0-.6.15,2.16,2.16,0,0,0-.53.4v3.71Z" transform="translate(-0.18 -0.18)"/><path class="cls-3" d="M512.83,19.87A.25.25,0,0,1,513,20l.53.58a2.91,2.91,0,0,1-1.08.83,3.73,3.73,0,0,1-1.54.29,3.64,3.64,0,0,1-1.45-.27,3.2,3.2,0,0,1-1.1-.77,3.34,3.34,0,0,1-.7-1.17,4.38,4.38,0,0,1-.24-1.49,4,4,0,0,1,.27-1.49,3.37,3.37,0,0,1,1.93-1.93,4,4,0,0,1,1.51-.27,3.57,3.57,0,0,1,1.41.26,3.3,3.3,0,0,1,1,.68l-.45.63a.39.39,0,0,1-.1.1.29.29,0,0,1-.17,0,.39.39,0,0,1-.24-.09l-.3-.19a2.49,2.49,0,0,0-.47-.2,2.7,2.7,0,0,0-1.66.09,2.08,2.08,0,0,0-.73.51,2.34,2.34,0,0,0-.48.8,3.08,3.08,0,0,0-.17,1.06A3.16,3.16,0,0,0,509,19a2.38,2.38,0,0,0,.47.8,2,2,0,0,0,.69.5,2.16,2.16,0,0,0,.86.17,3.75,3.75,0,0,0,.5,0,2.11,2.11,0,0,0,.41-.1,1.82,1.82,0,0,0,.36-.17,2.2,2.2,0,0,0,.33-.25l.11-.07A.26.26,0,0,1,512.83,19.87Z" transform="translate(-0.18 -0.18)"/><path class="cls-3" d="M514.49,21.58V14.15h1.23V17a2.63,2.63,0,0,1,.66-.46,1.91,1.91,0,0,1,.85-.17,1.83,1.83,0,0,1,.74.14,1.46,1.46,0,0,1,.54.4,1.77,1.77,0,0,1,.33.61,2.61,2.61,0,0,1,.11.79v3.27h-1.24V18.31a1.1,1.1,0,0,0-.22-.73.81.81,0,0,0-.65-.26,1.29,1.29,0,0,0-.6.15,2.16,2.16,0,0,0-.53.4v3.71Z" transform="translate(-0.18 -0.18)"/><path class="cls-3" d="M522.3,16.37a2.5,2.5,0,0,1,.89.15,2,2,0,0,1,.7.45,2.08,2.08,0,0,1,.46.73,2.75,2.75,0,0,1,.17,1,1.71,1.71,0,0,1,0,.23.37.37,0,0,1,0,.15.18.18,0,0,1-.09.07l-.14,0h-3.17a1.77,1.77,0,0,0,.42,1.16,1.33,1.33,0,0,0,1,.37,1.69,1.69,0,0,0,.52-.07,2.42,2.42,0,0,0,.38-.15l.29-.15a.47.47,0,0,1,.24-.07.27.27,0,0,1,.13,0,.28.28,0,0,1,.09.08l.36.45a2.06,2.06,0,0,1-.46.4,2.58,2.58,0,0,1-.53.26,3,3,0,0,1-.57.14,4.1,4.1,0,0,1-.56,0,2.75,2.75,0,0,1-1-.18,2.23,2.23,0,0,1-.8-.52,2.47,2.47,0,0,1-.54-.86,3.33,3.33,0,0,1-.19-1.19,2.84,2.84,0,0,1,.17-1,2.37,2.37,0,0,1,.49-.8,2.3,2.3,0,0,1,.77-.54A2.56,2.56,0,0,1,522.3,16.37Zm0,.88a1.14,1.14,0,0,0-.84.31,1.51,1.51,0,0,0-.39.87h2.32a1.55,1.55,0,0,0-.06-.45,1.06,1.06,0,0,0-.2-.37.94.94,0,0,0-.34-.25A1.16,1.16,0,0,0,522.32,17.25Z" transform="translate(-0.18 -0.18)"/><path class="cls-3" d="M529.13,17.53l-.11.11a.25.25,0,0,1-.15,0,.33.33,0,0,1-.18-.06l-.21-.13a1.61,1.61,0,0,0-.3-.13,1.36,1.36,0,0,0-.43-.06,1.3,1.3,0,0,0-.57.12,1.08,1.08,0,0,0-.41.34,1.51,1.51,0,0,0-.24.53,2.84,2.84,0,0,0-.08.71,2.76,2.76,0,0,0,.09.73,1.54,1.54,0,0,0,.25.54,1.09,1.09,0,0,0,.4.33,1.21,1.21,0,0,0,.53.11,1.31,1.31,0,0,0,.48-.07,1.48,1.48,0,0,0,.31-.16l.22-.16a.33.33,0,0,1,.21-.07.25.25,0,0,1,.23.12l.35.45a2.23,2.23,0,0,1-.44.4,2.4,2.4,0,0,1-.5.26,2.54,2.54,0,0,1-.53.14,3.83,3.83,0,0,1-.54,0,2.28,2.28,0,0,1-.9-.18,2.09,2.09,0,0,1-.73-.52,2.5,2.5,0,0,1-.5-.83,3.23,3.23,0,0,1-.18-1.12,3.26,3.26,0,0,1,.16-1,2.37,2.37,0,0,1,.48-.83,2.19,2.19,0,0,1,.78-.55,2.68,2.68,0,0,1,1.07-.2,2.54,2.54,0,0,1,1,.19,2.45,2.45,0,0,1,.78.53Z" transform="translate(-0.18 -0.18)"/><path class="cls-3" d="M531.54,14.15V18.4h.23a.44.44,0,0,0,.2,0,.51.51,0,0,0,.15-.13l1.27-1.58a.74.74,0,0,1,.18-.16.47.47,0,0,1,.25-.06H535l-1.6,1.9-.17.19a1.14,1.14,0,0,1-.19.15,1,1,0,0,1,.18.17l.16.21L535,21.58h-1.12a.55.55,0,0,1-.25,0,.48.48,0,0,1-.18-.17l-1.3-1.94a.41.41,0,0,0-.15-.15.55.55,0,0,0-.22,0h-.28v2.35h-1.24V14.15Z" transform="translate(-0.18 -0.18)"/><path class="cls-3" d="M537.7,16.37a2.81,2.81,0,0,1,1,.19,2.25,2.25,0,0,1,.8.52,2.33,2.33,0,0,1,.51.83,3.44,3.44,0,0,1,0,2.19,2.38,2.38,0,0,1-.51.83,2.23,2.23,0,0,1-.8.53,3,3,0,0,1-2.09,0,2.23,2.23,0,0,1-.8-.53,2.39,2.39,0,0,1-.52-.83,3.39,3.39,0,0,1,0-2.19,2.34,2.34,0,0,1,.52-.83,2.26,2.26,0,0,1,.8-.52A2.83,2.83,0,0,1,537.7,16.37Zm0,4.33a1.09,1.09,0,0,0,.95-.43A2.15,2.15,0,0,0,539,19a2.18,2.18,0,0,0-.31-1.27,1.08,1.08,0,0,0-.95-.44,1.1,1.1,0,0,0-1,.44,2.17,2.17,0,0,0-.31,1.26,2.15,2.15,0,0,0,.31,1.26A1.1,1.1,0,0,0,537.7,20.7Z" transform="translate(-0.18 -0.18)"/><path class="cls-3" d="M542.32,16.45v3.26a1.09,1.09,0,0,0,.22.73.8.8,0,0,0,.65.26,1.31,1.31,0,0,0,.6-.14,2.12,2.12,0,0,0,.53-.39V16.45h1.24v5.13h-.76a.3.3,0,0,1-.31-.23l-.08-.41a3.59,3.59,0,0,1-.33.29,2,2,0,0,1-.78.37,2.07,2.07,0,0,1-.48.05,1.81,1.81,0,0,1-.74-.14,1.48,1.48,0,0,1-.54-.4,1.75,1.75,0,0,1-.33-.62,2.61,2.61,0,0,1-.11-.79V16.45Z" transform="translate(-0.18 -0.18)"/><path class="cls-3" d="M548.56,21.66a1.35,1.35,0,0,1-1-.38,1.45,1.45,0,0,1-.36-1V17.37h-.52a.24.24,0,0,1-.25-.26v-.49l.82-.13.26-1.4a.25.25,0,0,1,.09-.15.3.3,0,0,1,.18-.06h.64v1.62h1.35v.88h-1.35v2.78a.55.55,0,0,0,.12.38.41.41,0,0,0,.32.13.59.59,0,0,0,.19,0l.14-.06.1-.06.09,0a.14.14,0,0,1,.09,0l.08.08.37.6a1.88,1.88,0,0,1-.62.34A2.31,2.31,0,0,1,548.56,21.66Z" transform="translate(-0.18 -0.18)"/></svg>